<svg xmlns="http://www.w3.org/2000/svg" viewBox="0 0 64 64"><path fill="#767689" d="M45.7,18.3a19.34,19.34,0,0,0-15.1-5.63c-6,.43-13.6.29-17.88-4l-2-2a2.86,2.86,0,0,0-4,4l9.74,9.74a19.37,19.37,0,0,0,27.1,27.1l9.74,9.74a2.86,2.86,0,1,0,4-4l-2-2C51,47,50.9,39.35,51.33,33.4A19.34,19.34,0,0,0,45.7,18.3Z"/><path fill="#5f5f70" d="M8.71,5.86a2.85,2.85,0,0,0-2,4.87l9.74,9.74,27.1,27.1,9.74,9.74a2.86,2.86,0,1,0,4-4l-2-2C51,47,50.9,39.35,51.33,33.4A19.39,19.39,0,0,0,30.6,12.67c-6,.43-13.6.29-17.88-4l-2-2a2.88,2.88,0,0,0-2-.83Z"/><path fill="#fe8657" d="M40.78,23a12.54,12.54,0,0,0-15.4-1.7L42.66,38.62A12.54,12.54,0,0,0,40.78,23ZM21.34,25.38A12.55,12.55,0,0,0,38.62,42.66Z"/><path fill="#fe4a13" d="M32,25.18a6.63,6.63,0,0,0-2.38.42l8.76,8.76a6.8,6.8,0,0,0-1.58-7.18l0-.06A6.8,6.8,0,0,0,32,25.18ZM25.6,29.64a6.82,6.82,0,0,0,8.76,8.76Z"/><path fill="#16244d" d="M41.48,22.32h0a13.52,13.52,0,0,0-16.63-1.83,1,1,0,0,0-.46.74,1,1,0,0,0,.28.82L42,39.33a1,1,0,0,0,.82.28,1,1,0,0,0,.74-.46C49.29,29.83,41.53,22.42,41.48,22.32ZM42.42,37,27,21.58C36.84,16.88,47.12,27.18,42.42,37Z"/><path fill="#16244d" d="M58,58a3.84,3.84,0,0,0,0-5.45l-2-2c-4.12-4.12-4.08-11.73-3.7-17.1A20.36,20.36,0,0,0,30.53,11.68c-5.37.38-13,.42-17.1-3.7l-2-2A3.85,3.85,0,0,0,6,11.44l9.13,9.14a20.38,20.38,0,0,0,28.3,28.3L52.56,58A3.85,3.85,0,0,0,58,58ZM19,45a18.48,18.48,0,0,1-2.43-23l3.52,3.52A13.53,13.53,0,0,0,38.45,43.91L42,47.42A18.49,18.49,0,0,1,19,45Zm2.57-18L37,42.42A11.55,11.55,0,0,1,21.58,27ZM7.4,10A1.86,1.86,0,0,1,10,7.4l2,2c4.7,4.7,12.9,4.69,18.65,4.28A18.39,18.39,0,0,1,50.33,33.33c-.41,5.76-.42,14,4.28,18.65l2,2A1.86,1.86,0,0,1,54,56.6Z"/><path fill="#16244d" d="M60 38.6h-.86v-.86a1 1 0 1 0-2 0v.86h-.85a1 1 0 0 0 0 2h.85v.86a1 1 0 0 0 2 0V40.6H60a1 1 0 0 0 0-2zM46.38 4.86a1 1 0 0 0-1 1v.85h-.86a1 1 0 1 0 0 2h.86v.86a1 1 0 0 0 2 0V8.71h.85a1 1 0 0 0 0-2h-.85V5.86A1 1 0 0 0 46.38 4.86zM4 40.41h.86v.86a1 1 0 0 0 2 0v-.86h.85a1 1 0 1 0 0-2H6.86v-.86a1 1 0 0 0-2 0v.86H4a1 1 0 0 0 0 2zM39 55.29a1 1 0 0 0-1 1v.85H37.1a1 1 0 0 0 0 2H38V60a1 1 0 0 0 2 0v-.86h.86a1 1 0 1 0 0-2H40v-.85A1 1 0 0 0 39 55.29z"/></svg>